<svg xmlns="http://www.w3.org/2000/svg" width="500" height="719" viewBox="0 0 500 719"><rect width="100%" height="100%" fill="#DDDDDD"/><path fill="#999999" d="M127.665 369.725h27.83l-10.64-29.1q-.79-1.94-1.64-4.6-.84-2.66-1.69-5.75-.79 3.09-1.63 5.78-.85 2.69-1.64 4.69l-10.59 28.98Zm22.21-54.45 34.36 87.48h-12.58q-2.12 0-3.45-1.06t-2-2.63l-6.53-17.85h-36.24l-6.53 17.85q-.49 1.39-1.88 2.54-1.39 1.15-3.45 1.15h-12.7l34.42-87.48h16.58Zm89.48 33.09-3.93 5.45q-.67.84-1.31 1.33-.63.48-1.84.48-1.15 0-2.24-.7-1.09-.69-2.6-1.57-1.51-.88-3.6-1.57-2.09-.7-5.17-.7-3.94 0-6.9 1.42-2.96 1.43-4.93 4.09-1.97 2.66-2.94 6.44-.96 3.78-.96 8.56 0 4.96 1.06 8.84 1.05 3.87 3.05 6.5 2 2.63 4.84 3.99 2.84 1.36 6.41 1.36 3.57 0 5.78-.87 2.21-.88 3.72-1.94 1.51-1.06 2.63-1.94 1.12-.87 2.51-.87 1.82 0 2.73 1.39l4.29 5.44q-2.48 2.91-5.38 4.87-2.91 1.97-6.02 3.15-3.12 1.18-6.41 1.66-3.3.49-6.57.49-5.75 0-10.83-2.15t-8.89-6.26q-3.81-4.12-6.02-10.08-2.21-5.95-2.21-13.58 0-6.83 1.97-12.67 1.96-5.84 5.77-10.11 3.82-4.26 9.44-6.68 5.63-2.42 12.95-2.42 6.96 0 12.19 2.24 5.23 2.24 9.41 6.41Zm30.61 55.36q-8.11 0-12.43-4.57-4.33-4.57-4.33-12.61v-34.67h-6.35q-1.21 0-2.06-.79-.84-.78-.84-2.36v-5.93l9.98-1.63 3.14-16.94q.31-1.21 1.15-1.87.85-.67 2.18-.67h7.75v19.54h16.57v10.65h-16.57v33.64q0 2.9 1.42 4.53 1.42 1.64 3.9 1.64 1.39 0 2.33-.33.94-.34 1.63-.7.7-.36 1.24-.7.55-.33 1.09-.33.67 0 1.09.33.42.34.91 1l4.48 7.26q-3.27 2.73-7.51 4.12-4.23 1.39-8.77 1.39Zm51.79-64.01q6.9 0 12.55 2.24 5.66 2.24 9.68 6.35 4.03 4.11 6.2 10.04 2.18 5.93 2.18 13.25 0 7.38-2.18 13.31-2.17 5.93-6.2 10.11-4.02 4.17-9.68 6.41-5.65 2.24-12.55 2.24-6.96 0-12.65-2.24-5.68-2.24-9.71-6.41-4.02-4.18-6.23-10.11-2.21-5.93-2.21-13.31 0-7.32 2.21-13.25t6.23-10.04q4.03-4.11 9.71-6.35 5.69-2.24 12.65-2.24Zm0 52.45q7.74 0 11.46-5.2 3.72-5.2 3.72-15.25 0-10.04-3.72-15.3-3.72-5.27-11.46-5.27-7.87 0-11.65 5.3-3.78 5.29-3.78 15.27 0 9.99 3.78 15.22t11.65 5.23Zm55.23-47.73.91 7.02q2.91-5.57 6.9-8.75 3.99-3.17 9.44-3.17 4.29 0 6.89 1.87l-.96 11.2q-.31 1.08-.88 1.54-.58.45-1.54.45-.91 0-2.7-.3-1.78-.3-3.47-.3-2.48 0-4.42.72-1.94.73-3.48 2.09-1.54 1.36-2.72 3.3-1.18 1.93-2.21 4.41v38.24h-14.94v-62.07h8.77q2.3 0 3.2.81.91.82 1.21 2.94Z"/></svg>