<svg xmlns="http://www.w3.org/2000/svg" width="500" height="719" viewBox="0 0 500 719"><rect width="100%" height="100%" fill="#000000"/><path fill="#FFF" d="M118.21 344.035h4.15v25.31h-2.41q-.56 0-.94-.18-.38-.19-.73-.63l-13.21-16.87q.11 1.16.11 2.14v15.54h-4.15v-25.31h2.47q.29 0 .51.03.22.03.39.11.16.07.32.22t.35.4l13.27 16.94q-.06-.62-.09-1.21-.04-.6-.04-1.1v-15.39Zm17.05 7.07q1.99 0 3.63.65t2.8 1.84q1.16 1.19 1.79 2.9.63 1.72.63 3.84 0 2.13-.63 3.85-.63 1.71-1.79 2.92-1.16 1.21-2.8 1.85-1.64.65-3.63.65-2.01 0-3.66-.65-1.64-.64-2.81-1.85-1.16-1.21-1.8-2.92-.64-1.72-.64-3.85 0-2.12.64-3.84.64-1.71 1.8-2.9 1.17-1.19 2.81-1.84 1.65-.65 3.66-.65Zm0 15.18q2.24 0 3.32-1.51 1.07-1.5 1.07-4.41 0-2.9-1.07-4.43-1.08-1.52-3.32-1.52-2.28 0-3.37 1.53-1.09 1.53-1.09 4.42 0 2.89 1.09 4.4 1.09 1.52 3.37 1.52Zm26.67-6.5h8.05l-3.08-8.41q-.23-.56-.47-1.33-.25-.77-.49-1.67-.23.9-.48 1.68-.24.77-.47 1.35l-3.06 8.38Zm6.42-15.75 9.94 25.31h-3.64q-.61 0-1-.31-.38-.3-.57-.76l-1.89-5.16H160.7l-1.89 5.16q-.14.4-.54.74-.4.33-1 .33h-3.67l9.96-25.31h4.79Zm24.66 7.35h3.41l-7.12 17.96h-3.92l-7.12-17.96h3.57q.49 0 .81.23.32.23.43.58l3.46 9.59q.28.84.49 1.64.21.81.37 1.61.18-.8.39-1.61.21-.8.5-1.64l3.54-9.59q.12-.35.44-.58.31-.23.75-.23Zm15.19 13.32v-3.03q-1.87.09-3.15.33-1.28.23-2.05.6-.77.37-1.1.86-.33.49-.33 1.07 0 1.13.67 1.62.67.49 1.76.49 1.33 0 2.3-.48.97-.48 1.9-1.46Zm-9.14-9.43-.77-1.38q3.1-2.84 7.46-2.84 1.57 0 2.82.52 1.24.51 2.1 1.43.85.92 1.3 2.2.45 1.28.45 2.8v11.34h-1.96q-.62 0-.95-.18-.33-.19-.52-.75l-.39-1.29q-.68.61-1.33 1.07-.65.47-1.35.78-.7.32-1.49.48-.8.17-1.76.17-1.14 0-2.1-.31-.96-.3-1.66-.92-.7-.61-1.09-1.52-.38-.91-.38-2.12 0-.68.22-1.35.23-.68.75-1.29.51-.61 1.34-1.15.82-.55 2.02-.95 1.2-.4 2.79-.65 1.59-.26 3.64-.31v-1.05q0-1.8-.77-2.67-.77-.87-2.22-.87-1.05 0-1.74.25-.7.24-1.22.55-.53.31-.95.55-.43.25-.96.25-.45 0-.77-.24-.31-.24-.51-.55Zm17.56-3.89h4.34v17.96h-4.34v-17.96Zm4.93-5.23q0 .56-.23 1.05-.22.49-.6.86t-.88.59q-.51.21-1.09.21-.56 0-1.06-.21-.5-.22-.86-.59-.37-.37-.59-.86-.22-.49-.22-1.05 0-.58.22-1.08.22-.51.59-.88.36-.37.86-.58.5-.22 1.06-.22.58 0 1.09.22.5.21.88.58t.6.88q.23.5.23 1.08Zm3.87-2.82h4.32v26.01h-4.32v-26.01Zm18.13 21.37v-3.03q-1.87.09-3.15.33-1.28.23-2.05.6-.77.37-1.1.86-.33.49-.33 1.07 0 1.13.67 1.62.67.49 1.76.49 1.33 0 2.3-.48.97-.48 1.9-1.46Zm-9.14-9.43-.77-1.38q3.1-2.84 7.46-2.84 1.57 0 2.82.52 1.24.51 2.1 1.43.85.92 1.3 2.2.45 1.28.45 2.8v11.34h-1.96q-.62 0-.95-.18-.33-.19-.52-.75l-.39-1.29q-.68.61-1.33 1.07-.65.47-1.35.78-.7.32-1.49.48-.8.17-1.76.17-1.14 0-2.1-.31-.96-.3-1.66-.92-.7-.61-1.09-1.52-.38-.91-.38-2.12 0-.68.22-1.35.23-.68.75-1.29.51-.61 1.34-1.15.82-.55 2.02-.95 1.2-.4 2.79-.65 1.59-.26 3.64-.31v-1.05q0-1.8-.77-2.67-.77-.87-2.22-.87-1.05 0-1.74.25-.7.24-1.22.55-.53.31-.95.55-.43.25-.96.25-.45 0-.77-.24-.31-.24-.51-.55Zm21.74 1.36v8.05q.73.9 1.6 1.26.87.37 1.83.37 1 0 1.79-.36.8-.36 1.36-1.12.56-.76.86-1.94.29-1.18.29-2.83 0-2.95-.98-4.27-.98-1.33-2.81-1.33-1.25 0-2.17.57-.93.57-1.77 1.6Zm0-13.3v10.26q1.08-1.14 2.41-1.81 1.32-.68 3.01-.68 1.56 0 2.81.62 1.25.61 2.14 1.76.88 1.14 1.35 2.77.48 1.63.48 3.66 0 2.18-.55 3.97-.54 1.78-1.54 3.05-1.01 1.27-2.43 1.97-1.42.7-3.15.7-.84 0-1.52-.16-.68-.17-1.26-.47-.58-.3-1.06-.72-.48-.43-.92-.96l-.19 1.21q-.11.45-.36.65-.25.19-.69.19h-2.85v-26.01h4.32Zm15.59 0h4.32v26.01h-4.32v-26.01Zm12.06 14.97h8.15q0-.84-.23-1.59-.24-.74-.71-1.3t-1.2-.88q-.73-.33-1.69-.33-1.87 0-2.95 1.07-1.07 1.07-1.37 3.03Zm11.02 2.6h-11.11q.11 1.39.49 2.39.39 1.01 1.02 1.67.63.65 1.49.98.87.32 1.92.32 1.05 0 1.81-.25.76-.24 1.33-.54.57-.3 1-.54.43-.25.83-.25.54 0 .8.41l1.25 1.57q-.72.84-1.61 1.41-.9.57-1.87.91-.97.34-1.97.48-1.01.14-1.96.14-1.87 0-3.48-.62-1.61-.62-2.8-1.84-1.19-1.21-1.87-3.01-.68-1.79-.68-4.15 0-1.84.59-3.46.6-1.62 1.71-2.82 1.11-1.2 2.71-1.9 1.6-.7 3.61-.7 1.7 0 3.14.55 1.43.54 2.46 1.58 1.04 1.04 1.62 2.56.59 1.51.59 3.45 0 .98-.21 1.32-.21.34-.81.34Zm18.17-16.87v25.31h-4.73v-25.31h4.73Zm9.29 25.31h-4.32v-17.96h2.64q.84 0 1.1.79l.28 1.33q.48-.52.99-.96.52-.44 1.11-.75.58-.32 1.26-.5.67-.19 1.47-.19 1.7 0 2.8.92 1.09.92 1.63 2.44.42-.89 1.05-1.53.63-.64 1.38-1.04.76-.4 1.61-.59.84-.2 1.7-.2 1.49 0 2.64.46 1.16.45 1.95 1.33.78.87 1.2 2.13.41 1.26.41 2.89v11.43h-4.33v-11.43q0-1.71-.75-2.58-.75-.87-2.2-.87-.67 0-1.24.23t-.99.66q-.43.43-.68 1.07-.24.65-.24 1.49v11.43h-4.34v-11.43q0-1.8-.73-2.62-.73-.83-2.13-.83-.94 0-1.75.47-.82.46-1.52 1.27v13.14Zm34.48-4.64v-3.03q-1.88.09-3.15.33-1.28.23-2.05.6-.77.37-1.1.86-.34.49-.34 1.07 0 1.13.68 1.62.67.49 1.76.49 1.33 0 2.3-.48.97-.48 1.9-1.46Zm-9.14-9.43-.77-1.38q3.1-2.84 7.46-2.84 1.57 0 2.81.52 1.25.51 2.1 1.43.86.92 1.31 2.2.44 1.28.44 2.8v11.34h-1.96q-.61 0-.94-.18-.33-.19-.53-.75l-.38-1.29q-.68.61-1.33 1.07-.65.47-1.35.78-.7.32-1.49.48-.8.17-1.76.17-1.14 0-2.1-.31-.97-.3-1.67-.92-.7-.61-1.08-1.52-.39-.91-.39-2.12 0-.68.23-1.35.23-.68.75-1.29.51-.61 1.33-1.15.83-.55 2.03-.95 1.19-.4 2.79-.65 1.59-.26 3.64-.31v-1.05q0-1.8-.77-2.67-.77-.87-2.23-.87-1.05 0-1.74.25-.69.24-1.21.55-.53.31-.96.55-.43.25-.95.25-.46 0-.77-.24-.32-.24-.51-.55Zm23.98 4.65q.8 0 1.4-.21.59-.22.99-.61.39-.38.59-.93.2-.54.2-1.19 0-1.33-.79-2.1-.8-.78-2.39-.78-1.6 0-2.39.78-.8.77-.8 2.1 0 .63.2 1.18.2.54.6.93.39.4 1 .62.6.21 1.39.21Zm4.88 10.23q0-.53-.32-.86-.31-.34-.85-.52-.55-.18-1.27-.27-.73-.09-1.54-.13-.82-.05-1.68-.08-.87-.04-1.69-.14-.72.4-1.16.94-.45.55-.45 1.27 0 .47.24.88.23.41.75.71.51.3 1.34.46.82.17 2.01.17 1.21 0 2.08-.19.88-.18 1.45-.5.56-.33.83-.77.26-.45.26-.97Zm-.86-18.15h5.16v1.61q0 .77-.92.94l-1.61.3q.36.93.36 2.03 0 1.33-.53 2.41-.53 1.07-1.48 1.82-.94.76-2.23 1.17-1.29.41-2.77.41-.53 0-1.02-.05-.49-.06-.96-.14-.84.5-.84 1.13 0 .55.5.8t1.32.36q.82.1 1.87.13 1.05.03 2.15.11 1.11.09 2.16.31t1.87.69q.82.47 1.32 1.29.5.81.5 2.09 0 1.19-.59 2.31-.58 1.12-1.69 2-1.12.87-2.73 1.4-1.62.54-3.69.54-2.03 0-3.53-.4-1.51-.39-2.51-1.05-.99-.65-1.48-1.51t-.49-1.78q0-1.26.76-2.11.76-.85 2.09-1.36-.72-.37-1.14-.98-.42-.61-.42-1.61 0-.4.15-.83.15-.43.44-.85.29-.42.72-.8.44-.37 1.04-.67-1.37-.74-2.15-1.96-.78-1.23-.78-2.87 0-1.33.54-2.41.53-1.07 1.49-1.83.95-.77 2.25-1.17 1.31-.4 2.85-.4 1.15 0 2.17.24 1.01.23 1.85.69Zm11.31 6.3h8.15q0-.84-.23-1.59-.24-.74-.71-1.3-.48-.56-1.2-.88-.73-.33-1.69-.33-1.87 0-2.95 1.07t-1.37 3.03Zm11.02 2.6h-11.11q.1 1.39.49 2.39.38 1.01 1.01 1.67.63.65 1.5.98.87.32 1.92.32 1.05 0 1.81-.25.76-.24 1.33-.54.57-.3 1-.54.42-.25.83-.25.54 0 .8.41l1.24 1.57q-.71.84-1.61 1.41-.89.57-1.86.91-.97.34-1.98.48-1 .14-1.95.14-1.87 0-3.48-.62-1.61-.62-2.8-1.84-1.19-1.21-1.87-3.01-.69-1.79-.69-4.15 0-1.84.6-3.46.59-1.62 1.71-2.82 1.11-1.2 2.71-1.9 1.6-.7 3.61-.7 1.7 0 3.13.55 1.44.54 2.47 1.58 1.03 1.04 1.62 2.56.59 1.51.59 3.45 0 .98-.21 1.32-.21.34-.81.34Z"/></svg>